<?xml version="1.0" encoding="utf-8" standalone="no"?>
<!DOCTYPE svg PUBLIC "-//W3C//DTD SVG 1.1//EN"
  "http://www.w3.org/Graphics/SVG/1.1/DTD/svg11.dtd">
<svg xmlns:xlink="http://www.w3.org/1999/xlink" width="504pt" height="432pt" viewBox="0 0 504 432" xmlns="http://www.w3.org/2000/svg" version="1.1">
 <metadata>
  <rdf:RDF xmlns:dc="http://purl.org/dc/elements/1.1/" xmlns:cc="http://creativecommons.org/ns#" xmlns:rdf="http://www.w3.org/1999/02/22-rdf-syntax-ns#">
   <cc:Work>
    <dc:type rdf:resource="http://purl.org/dc/dcmitype/StillImage"/>
    <dc:date>2023-11-26T18:41:48.098572</dc:date>
    <dc:format>image/svg+xml</dc:format>
    <dc:creator>
     <cc:Agent>
      <dc:title>Matplotlib v3.8.2, https://matplotlib.org/</dc:title>
     </cc:Agent>
    </dc:creator>
   </cc:Work>
  </rdf:RDF>
 </metadata>
 <defs>
  <style type="text/css">*{stroke-linejoin: round; stroke-linecap: butt}</style>
 </defs>
 <g id="figure_1">
  <g id="patch_1">
   <path d="M 0 432 
L 504 432 
L 504 0 
L 0 0 
z
" style="fill: #ffffff"/>
  </g>
  <g id="axes_1">
   <g id="patch_2">
    <path d="M 55.01 292.470589 
L 491.04 292.470589 
L 491.04 12.96 
L 55.01 12.96 
z
" style="fill: #ffffff"/>
   </g>
   <g id="PathCollection_1">
    <defs>
     <path id="md669c0f5be" d="M 0 5.59017 
C 1.48253 5.59017 2.90454 5.001154 3.952847 3.952847 
C 5.001154 2.90454 5.59017 1.48253 5.59017 0 
C 5.59017 -1.48253 5.001154 -2.90454 3.952847 -3.952847 
C 2.90454 -5.001154 1.48253 -5.59017 0 -5.59017 
C -1.48253 -5.59017 -2.90454 -5.001154 -3.952847 -3.952847 
C -5.001154 -2.90454 -5.59017 -1.48253 -5.59017 0 
C -5.59017 1.48253 -5.001154 2.90454 -3.952847 3.952847 
C -2.90454 5.001154 -1.48253 5.59017 0 5.59017 
z
" style="stroke: #440154"/>
    </defs>
    <g clip-path="url(#p4160b11ee0)">
     <use xlink:href="#md669c0f5be" x="74.829545" y="136.237183" style="fill: #440154; stroke: #440154"/>
    </g>
   </g>
   <g id="PathCollection_2">
    <defs>
     <path id="ma71e497ae1" d="M 0 5.59017 
C 1.48253 5.59017 2.90454 5.001154 3.952847 3.952847 
C 5.001154 2.90454 5.59017 1.48253 5.59017 0 
C 5.59017 -1.48253 5.001154 -2.90454 3.952847 -3.952847 
C 2.90454 -5.001154 1.48253 -5.59017 0 -5.59017 
C -1.48253 -5.59017 -2.90454 -5.001154 -3.952847 -3.952847 
C -5.001154 -2.90454 -5.59017 -1.48253 -5.59017 0 
C -5.59017 1.48253 -5.001154 2.90454 -3.952847 3.952847 
C -2.90454 5.001154 -1.48253 5.59017 0 5.59017 
z
" style="stroke: #3b528b"/>
    </defs>
    <g clip-path="url(#p4160b11ee0)">
     <use xlink:href="#ma71e497ae1" x="74.829545" y="150.2274" style="fill: #3b528b; stroke: #3b528b"/>
    </g>
   </g>
   <g id="PathCollection_3">
    <defs>
     <path id="m7ef38f6faf" d="M 0 5.59017 
C 1.48253 5.59017 2.90454 5.001154 3.952847 3.952847 
C 5.001154 2.90454 5.59017 1.48253 5.59017 0 
C 5.59017 -1.48253 5.001154 -2.90454 3.952847 -3.952847 
C 2.90454 -5.001154 1.48253 -5.59017 0 -5.59017 
C -1.48253 -5.59017 -2.90454 -5.001154 -3.952847 -3.952847 
C -5.001154 -2.90454 -5.59017 -1.48253 -5.59017 0 
C -5.59017 1.48253 -5.001154 2.90454 -3.952847 3.952847 
C -2.90454 5.001154 -1.48253 5.59017 0 5.59017 
z
" style="stroke: #21918c"/>
    </defs>
    <g clip-path="url(#p4160b11ee0)">
     <use xlink:href="#m7ef38f6faf" x="74.829545" y="168.543616" style="fill: #21918c; stroke: #21918c"/>
    </g>
   </g>
   <g id="PathCollection_4">
    <defs>
     <path id="m774d9246e5" d="M 0 5.59017 
C 1.48253 5.59017 2.90454 5.001154 3.952847 3.952847 
C 5.001154 2.90454 5.59017 1.48253 5.59017 0 
C 5.59017 -1.48253 5.001154 -2.90454 3.952847 -3.952847 
C 2.90454 -5.001154 1.48253 -5.59017 0 -5.59017 
C -1.48253 -5.59017 -2.90454 -5.001154 -3.952847 -3.952847 
C -5.001154 -2.90454 -5.59017 -1.48253 -5.59017 0 
C -5.59017 1.48253 -5.001154 2.90454 -3.952847 3.952847 
C -2.90454 5.001154 -1.48253 5.59017 0 5.59017 
z
" style="stroke: #5ec962"/>
    </defs>
    <g clip-path="url(#p4160b11ee0)">
     <use xlink:href="#m774d9246e5" x="74.829545" y="180.507355" style="fill: #5ec962; stroke: #5ec962"/>
    </g>
   </g>
   <g id="PathCollection_5">
    <defs>
     <path id="me497a61358" d="M 0 5.59017 
C 1.48253 5.59017 2.90454 5.001154 3.952847 3.952847 
C 5.001154 2.90454 5.59017 1.48253 5.59017 0 
C 5.59017 -1.48253 5.001154 -2.90454 3.952847 -3.952847 
C 2.90454 -5.001154 1.48253 -5.59017 0 -5.59017 
C -1.48253 -5.59017 -2.90454 -5.001154 -3.952847 -3.952847 
C -5.001154 -2.90454 -5.59017 -1.48253 -5.59017 0 
C -5.59017 1.48253 -5.001154 2.90454 -3.952847 3.952847 
C -2.90454 5.001154 -1.48253 5.59017 0 5.59017 
z
" style="stroke: #fde725"/>
    </defs>
    <g clip-path="url(#p4160b11ee0)">
     <use xlink:href="#me497a61358" x="74.829545" y="184.446886" style="fill: #fde725; stroke: #fde725"/>
    </g>
   </g>
   <g id="PathCollection_6">
    <g clip-path="url(#p4160b11ee0)">
     <use xlink:href="#md669c0f5be" x="114.468636" y="182.909629" style="fill: #440154; stroke: #440154"/>
    </g>
   </g>
   <g id="PathCollection_7">
    <g clip-path="url(#p4160b11ee0)">
     <use xlink:href="#ma71e497ae1" x="114.468636" y="161.10092" style="fill: #3b528b; stroke: #3b528b"/>
    </g>
   </g>
   <g id="PathCollection_8">
    <g clip-path="url(#p4160b11ee0)">
     <use xlink:href="#m7ef38f6faf" x="114.468636" y="154.145204" style="fill: #21918c; stroke: #21918c"/>
    </g>
   </g>
   <g id="PathCollection_9">
    <g clip-path="url(#p4160b11ee0)">
     <use xlink:href="#m774d9246e5" x="114.468636" y="158.661417" style="fill: #5ec962; stroke: #5ec962"/>
    </g>
   </g>
   <g id="PathCollection_10">
    <g clip-path="url(#p4160b11ee0)">
     <use xlink:href="#me497a61358" x="114.468636" y="169.17655" style="fill: #fde725; stroke: #fde725"/>
    </g>
   </g>
   <g id="PathCollection_11">
    <g clip-path="url(#p4160b11ee0)">
     <use xlink:href="#md669c0f5be" x="154.107727" y="250.303878" style="fill: #440154; stroke: #440154"/>
    </g>
   </g>
   <g id="PathCollection_12">
    <g clip-path="url(#p4160b11ee0)">
     <use xlink:href="#ma71e497ae1" x="154.107727" y="248.29932" style="fill: #3b528b; stroke: #3b528b"/>
    </g>
   </g>
   <g id="PathCollection_13">
    <g clip-path="url(#p4160b11ee0)">
     <use xlink:href="#m7ef38f6faf" x="154.107727" y="248.56707" style="fill: #21918c; stroke: #21918c"/>
    </g>
   </g>
   <g id="PathCollection_14">
    <g clip-path="url(#p4160b11ee0)">
     <use xlink:href="#m774d9246e5" x="154.107727" y="256.953886" style="fill: #5ec962; stroke: #5ec962"/>
    </g>
   </g>
   <g id="PathCollection_15">
    <g clip-path="url(#p4160b11ee0)">
     <use xlink:href="#me497a61358" x="154.107727" y="279.765562" style="fill: #fde725; stroke: #fde725"/>
    </g>
   </g>
   <g id="PathCollection_16">
    <g clip-path="url(#p4160b11ee0)">
     <use xlink:href="#md669c0f5be" x="193.746818" y="123.084934" style="fill: #440154; stroke: #440154"/>
    </g>
   </g>
   <g id="PathCollection_17">
    <g clip-path="url(#p4160b11ee0)">
     <use xlink:href="#ma71e497ae1" x="193.746818" y="115.463753" style="fill: #3b528b; stroke: #3b528b"/>
    </g>
   </g>
   <g id="PathCollection_18">
    <g clip-path="url(#p4160b11ee0)">
     <use xlink:href="#m7ef38f6faf" x="193.746818" y="127.789345" style="fill: #21918c; stroke: #21918c"/>
    </g>
   </g>
   <g id="PathCollection_19">
    <g clip-path="url(#p4160b11ee0)">
     <use xlink:href="#m774d9246e5" x="193.746818" y="150.070893" style="fill: #5ec962; stroke: #5ec962"/>
    </g>
   </g>
   <g id="PathCollection_20">
    <g clip-path="url(#p4160b11ee0)">
     <use xlink:href="#me497a61358" x="193.746818" y="174.639779" style="fill: #fde725; stroke: #fde725"/>
    </g>
   </g>
   <g id="PathCollection_21">
    <g clip-path="url(#p4160b11ee0)">
     <use xlink:href="#md669c0f5be" x="233.385909" y="243.413595" style="fill: #440154; stroke: #440154"/>
    </g>
   </g>
   <g id="PathCollection_22">
    <g clip-path="url(#p4160b11ee0)">
     <use xlink:href="#ma71e497ae1" x="233.385909" y="231.772666" style="fill: #3b528b; stroke: #3b528b"/>
    </g>
   </g>
   <g id="PathCollection_23">
    <g clip-path="url(#p4160b11ee0)">
     <use xlink:href="#m7ef38f6faf" x="233.385909" y="222.849563" style="fill: #21918c; stroke: #21918c"/>
    </g>
   </g>
   <g id="PathCollection_24">
    <g clip-path="url(#p4160b11ee0)">
     <use xlink:href="#m774d9246e5" x="233.385909" y="217.055548" style="fill: #5ec962; stroke: #5ec962"/>
    </g>
   </g>
   <g id="PathCollection_25">
    <g clip-path="url(#p4160b11ee0)">
     <use xlink:href="#me497a61358" x="233.385909" y="211.908124" style="fill: #fde725; stroke: #fde725"/>
    </g>
   </g>
   <g id="PathCollection_26">
    <g clip-path="url(#p4160b11ee0)">
     <use xlink:href="#md669c0f5be" x="273.025" y="176.139618" style="fill: #440154; stroke: #440154"/>
    </g>
   </g>
   <g id="PathCollection_27">
    <g clip-path="url(#p4160b11ee0)">
     <use xlink:href="#ma71e497ae1" x="273.025" y="186.564752" style="fill: #3b528b; stroke: #3b528b"/>
    </g>
   </g>
   <g id="PathCollection_28">
    <g clip-path="url(#p4160b11ee0)">
     <use xlink:href="#m7ef38f6faf" x="273.025" y="199.155308" style="fill: #21918c; stroke: #21918c"/>
    </g>
   </g>
   <g id="PathCollection_29">
    <g clip-path="url(#p4160b11ee0)">
     <use xlink:href="#m774d9246e5" x="273.025" y="208.695941" style="fill: #5ec962; stroke: #5ec962"/>
    </g>
   </g>
   <g id="PathCollection_30">
    <g clip-path="url(#p4160b11ee0)">
     <use xlink:href="#me497a61358" x="273.025" y="214.460041" style="fill: #fde725; stroke: #fde725"/>
    </g>
   </g>
   <g id="PathCollection_31">
    <g clip-path="url(#p4160b11ee0)">
     <use xlink:href="#md669c0f5be" x="312.664091" y="160.591435" style="fill: #440154; stroke: #440154"/>
    </g>
   </g>
   <g id="PathCollection_32">
    <g clip-path="url(#p4160b11ee0)">
     <use xlink:href="#ma71e497ae1" x="312.664091" y="174.553446" style="fill: #3b528b; stroke: #3b528b"/>
    </g>
   </g>
   <g id="PathCollection_33">
    <g clip-path="url(#p4160b11ee0)">
     <use xlink:href="#m7ef38f6faf" x="312.664091" y="195.427824" style="fill: #21918c; stroke: #21918c"/>
    </g>
   </g>
   <g id="PathCollection_34">
    <g clip-path="url(#p4160b11ee0)">
     <use xlink:href="#m774d9246e5" x="312.664091" y="220.939719" style="fill: #5ec962; stroke: #5ec962"/>
    </g>
   </g>
   <g id="PathCollection_35">
    <g clip-path="url(#p4160b11ee0)">
     <use xlink:href="#me497a61358" x="312.664091" y="240.009721" style="fill: #fde725; stroke: #fde725"/>
    </g>
   </g>
   <g id="PathCollection_36">
    <g clip-path="url(#p4160b11ee0)">
     <use xlink:href="#md669c0f5be" x="352.303182" y="48.329857" style="fill: #440154; stroke: #440154"/>
    </g>
   </g>
   <g id="PathCollection_37">
    <g clip-path="url(#p4160b11ee0)">
     <use xlink:href="#ma71e497ae1" x="352.303182" y="32.712703" style="fill: #3b528b; stroke: #3b528b"/>
    </g>
   </g>
   <g id="PathCollection_38">
    <g clip-path="url(#p4160b11ee0)">
     <use xlink:href="#m7ef38f6faf" x="352.303182" y="27.984734" style="fill: #21918c; stroke: #21918c"/>
    </g>
   </g>
   <g id="PathCollection_39">
    <g clip-path="url(#p4160b11ee0)">
     <use xlink:href="#m774d9246e5" x="352.303182" y="25.665027" style="fill: #5ec962; stroke: #5ec962"/>
    </g>
   </g>
   <g id="PathCollection_40">
    <g clip-path="url(#p4160b11ee0)">
     <use xlink:href="#me497a61358" x="352.303182" y="25.759876" style="fill: #fde725; stroke: #fde725"/>
    </g>
   </g>
   <g id="PathCollection_41">
    <g clip-path="url(#p4160b11ee0)">
     <use xlink:href="#md669c0f5be" x="391.942273" y="153.032092" style="fill: #440154; stroke: #440154"/>
    </g>
   </g>
   <g id="PathCollection_42">
    <g clip-path="url(#p4160b11ee0)">
     <use xlink:href="#ma71e497ae1" x="391.942273" y="152.004335" style="fill: #3b528b; stroke: #3b528b"/>
    </g>
   </g>
   <g id="PathCollection_43">
    <g clip-path="url(#p4160b11ee0)">
     <use xlink:href="#m7ef38f6faf" x="391.942273" y="156.734377" style="fill: #21918c; stroke: #21918c"/>
    </g>
   </g>
   <g id="PathCollection_44">
    <g clip-path="url(#p4160b11ee0)">
     <use xlink:href="#m774d9246e5" x="391.942273" y="166.380217" style="fill: #5ec962; stroke: #5ec962"/>
    </g>
   </g>
   <g id="PathCollection_45">
    <g clip-path="url(#p4160b11ee0)">
     <use xlink:href="#me497a61358" x="391.942273" y="180.29291" style="fill: #fde725; stroke: #fde725"/>
    </g>
   </g>
   <g id="PathCollection_46">
    <g clip-path="url(#p4160b11ee0)">
     <use xlink:href="#md669c0f5be" x="431.581364" y="118.360437" style="fill: #440154; stroke: #440154"/>
    </g>
   </g>
   <g id="PathCollection_47">
    <g clip-path="url(#p4160b11ee0)">
     <use xlink:href="#ma71e497ae1" x="431.581364" y="121.218829" style="fill: #3b528b; stroke: #3b528b"/>
    </g>
   </g>
   <g id="PathCollection_48">
    <g clip-path="url(#p4160b11ee0)">
     <use xlink:href="#m7ef38f6faf" x="431.581364" y="132.283857" style="fill: #21918c; stroke: #21918c"/>
    </g>
   </g>
   <g id="PathCollection_49">
    <g clip-path="url(#p4160b11ee0)">
     <use xlink:href="#m774d9246e5" x="431.581364" y="145.147842" style="fill: #5ec962; stroke: #5ec962"/>
    </g>
   </g>
   <g id="PathCollection_50">
    <g clip-path="url(#p4160b11ee0)">
     <use xlink:href="#me497a61358" x="431.581364" y="155.595017" style="fill: #fde725; stroke: #fde725"/>
    </g>
   </g>
   <g id="PathCollection_51">
    <g clip-path="url(#p4160b11ee0)">
     <use xlink:href="#md669c0f5be" x="471.220455" y="116.019945" style="fill: #440154; stroke: #440154"/>
    </g>
   </g>
   <g id="PathCollection_52">
    <g clip-path="url(#p4160b11ee0)">
     <use xlink:href="#ma71e497ae1" x="471.220455" y="109.207121" style="fill: #3b528b; stroke: #3b528b"/>
    </g>
   </g>
   <g id="PathCollection_53">
    <g clip-path="url(#p4160b11ee0)">
     <use xlink:href="#m7ef38f6faf" x="471.220455" y="113.620937" style="fill: #21918c; stroke: #21918c"/>
    </g>
   </g>
   <g id="PathCollection_54">
    <g clip-path="url(#p4160b11ee0)">
     <use xlink:href="#m774d9246e5" x="471.220455" y="127.397865" style="fill: #5ec962; stroke: #5ec962"/>
    </g>
   </g>
   <g id="PathCollection_55">
    <g clip-path="url(#p4160b11ee0)">
     <use xlink:href="#me497a61358" x="471.220455" y="144.51727" style="fill: #fde725; stroke: #fde725"/>
    </g>
   </g>
   <g id="matplotlib.axis_1">
    <g id="xtick_1">
     <g id="line2d_1">
      <defs>
       <path id="ma29315acec" d="M 0 0 
L 0 3.5 
" style="stroke: #000000; stroke-width: 0.8"/>
      </defs>
      <g>
       <use xlink:href="#ma29315acec" x="74.829545" y="292.470589" style="stroke: #000000; stroke-width: 0.8"/>
      </g>
     </g>
     <g id="text_1">
      <!-- Weather -->
      <g transform="translate(69.301033 350.065967) rotate(-70) scale(0.12 -0.12)">
       <defs>
        <path id="DejaVuSans-57" d="M 213 4666 
L 850 4666 
L 1831 722 
L 2809 4666 
L 3519 4666 
L 4500 722 
L 5478 4666 
L 6119 4666 
L 4947 0 
L 4153 0 
L 3169 4050 
L 2175 0 
L 1381 0 
L 213 4666 
z
" transform="scale(0.015625)"/>
        <path id="DejaVuSans-65" d="M 3597 1894 
L 3597 1613 
L 953 1613 
Q 991 1019 1311 708 
Q 1631 397 2203 397 
Q 2534 397 2845 478 
Q 3156 559 3463 722 
L 3463 178 
Q 3153 47 2828 -22 
Q 2503 -91 2169 -91 
Q 1331 -91 842 396 
Q 353 884 353 1716 
Q 353 2575 817 3079 
Q 1281 3584 2069 3584 
Q 2775 3584 3186 3129 
Q 3597 2675 3597 1894 
z
M 3022 2063 
Q 3016 2534 2758 2815 
Q 2500 3097 2075 3097 
Q 1594 3097 1305 2825 
Q 1016 2553 972 2059 
L 3022 2063 
z
" transform="scale(0.015625)"/>
        <path id="DejaVuSans-61" d="M 2194 1759 
Q 1497 1759 1228 1600 
Q 959 1441 959 1056 
Q 959 750 1161 570 
Q 1363 391 1709 391 
Q 2188 391 2477 730 
Q 2766 1069 2766 1631 
L 2766 1759 
L 2194 1759 
z
M 3341 1997 
L 3341 0 
L 2766 0 
L 2766 531 
Q 2569 213 2275 61 
Q 1981 -91 1556 -91 
Q 1019 -91 701 211 
Q 384 513 384 1019 
Q 384 1609 779 1909 
Q 1175 2209 1959 2209 
L 2766 2209 
L 2766 2266 
Q 2766 2663 2505 2880 
Q 2244 3097 1772 3097 
Q 1472 3097 1187 3025 
Q 903 2953 641 2809 
L 641 3341 
Q 956 3463 1253 3523 
Q 1550 3584 1831 3584 
Q 2591 3584 2966 3190 
Q 3341 2797 3341 1997 
z
" transform="scale(0.015625)"/>
        <path id="DejaVuSans-74" d="M 1172 4494 
L 1172 3500 
L 2356 3500 
L 2356 3053 
L 1172 3053 
L 1172 1153 
Q 1172 725 1289 603 
Q 1406 481 1766 481 
L 2356 481 
L 2356 0 
L 1766 0 
Q 1100 0 847 248 
Q 594 497 594 1153 
L 594 3053 
L 172 3053 
L 172 3500 
L 594 3500 
L 594 4494 
L 1172 4494 
z
" transform="scale(0.015625)"/>
        <path id="DejaVuSans-68" d="M 3513 2113 
L 3513 0 
L 2938 0 
L 2938 2094 
Q 2938 2591 2744 2837 
Q 2550 3084 2163 3084 
Q 1697 3084 1428 2787 
Q 1159 2491 1159 1978 
L 1159 0 
L 581 0 
L 581 4863 
L 1159 4863 
L 1159 2956 
Q 1366 3272 1645 3428 
Q 1925 3584 2291 3584 
Q 2894 3584 3203 3211 
Q 3513 2838 3513 2113 
z
" transform="scale(0.015625)"/>
        <path id="DejaVuSans-72" d="M 2631 2963 
Q 2534 3019 2420 3045 
Q 2306 3072 2169 3072 
Q 1681 3072 1420 2755 
Q 1159 2438 1159 1844 
L 1159 0 
L 581 0 
L 581 3500 
L 1159 3500 
L 1159 2956 
Q 1341 3275 1631 3429 
Q 1922 3584 2338 3584 
Q 2397 3584 2469 3576 
Q 2541 3569 2628 3553 
L 2631 2963 
z
" transform="scale(0.015625)"/>
       </defs>
       <use xlink:href="#DejaVuSans-57"/>
       <use xlink:href="#DejaVuSans-65" x="93.001953"/>
       <use xlink:href="#DejaVuSans-61" x="154.525391"/>
       <use xlink:href="#DejaVuSans-74" x="215.804688"/>
       <use xlink:href="#DejaVuSans-68" x="255.013672"/>
       <use xlink:href="#DejaVuSans-65" x="318.392578"/>
       <use xlink:href="#DejaVuSans-72" x="379.916016"/>
      </g>
     </g>
    </g>
    <g id="xtick_2">
     <g id="line2d_2">
      <g>
       <use xlink:href="#ma29315acec" x="114.468636" y="292.470589" style="stroke: #000000; stroke-width: 0.8"/>
      </g>
     </g>
     <g id="text_2">
      <!-- Superstitions -->
      <g transform="translate(104.124373 376.528298) rotate(-70) scale(0.12 -0.12)">
       <defs>
        <path id="DejaVuSans-53" d="M 3425 4513 
L 3425 3897 
Q 3066 4069 2747 4153 
Q 2428 4238 2131 4238 
Q 1616 4238 1336 4038 
Q 1056 3838 1056 3469 
Q 1056 3159 1242 3001 
Q 1428 2844 1947 2747 
L 2328 2669 
Q 3034 2534 3370 2195 
Q 3706 1856 3706 1288 
Q 3706 609 3251 259 
Q 2797 -91 1919 -91 
Q 1588 -91 1214 -16 
Q 841 59 441 206 
L 441 856 
Q 825 641 1194 531 
Q 1563 422 1919 422 
Q 2459 422 2753 634 
Q 3047 847 3047 1241 
Q 3047 1584 2836 1778 
Q 2625 1972 2144 2069 
L 1759 2144 
Q 1053 2284 737 2584 
Q 422 2884 422 3419 
Q 422 4038 858 4394 
Q 1294 4750 2059 4750 
Q 2388 4750 2728 4690 
Q 3069 4631 3425 4513 
z
" transform="scale(0.015625)"/>
        <path id="DejaVuSans-75" d="M 544 1381 
L 544 3500 
L 1119 3500 
L 1119 1403 
Q 1119 906 1312 657 
Q 1506 409 1894 409 
Q 2359 409 2629 706 
Q 2900 1003 2900 1516 
L 2900 3500 
L 3475 3500 
L 3475 0 
L 2900 0 
L 2900 538 
Q 2691 219 2414 64 
Q 2138 -91 1772 -91 
Q 1169 -91 856 284 
Q 544 659 544 1381 
z
M 1991 3584 
L 1991 3584 
z
" transform="scale(0.015625)"/>
        <path id="DejaVuSans-70" d="M 1159 525 
L 1159 -1331 
L 581 -1331 
L 581 3500 
L 1159 3500 
L 1159 2969 
Q 1341 3281 1617 3432 
Q 1894 3584 2278 3584 
Q 2916 3584 3314 3078 
Q 3713 2572 3713 1747 
Q 3713 922 3314 415 
Q 2916 -91 2278 -91 
Q 1894 -91 1617 61 
Q 1341 213 1159 525 
z
M 3116 1747 
Q 3116 2381 2855 2742 
Q 2594 3103 2138 3103 
Q 1681 3103 1420 2742 
Q 1159 2381 1159 1747 
Q 1159 1113 1420 752 
Q 1681 391 2138 391 
Q 2594 391 2855 752 
Q 3116 1113 3116 1747 
z
" transform="scale(0.015625)"/>
        <path id="DejaVuSans-73" d="M 2834 3397 
L 2834 2853 
Q 2591 2978 2328 3040 
Q 2066 3103 1784 3103 
Q 1356 3103 1142 2972 
Q 928 2841 928 2578 
Q 928 2378 1081 2264 
Q 1234 2150 1697 2047 
L 1894 2003 
Q 2506 1872 2764 1633 
Q 3022 1394 3022 966 
Q 3022 478 2636 193 
Q 2250 -91 1575 -91 
Q 1294 -91 989 -36 
Q 684 19 347 128 
L 347 722 
Q 666 556 975 473 
Q 1284 391 1588 391 
Q 1994 391 2212 530 
Q 2431 669 2431 922 
Q 2431 1156 2273 1281 
Q 2116 1406 1581 1522 
L 1381 1569 
Q 847 1681 609 1914 
Q 372 2147 372 2553 
Q 372 3047 722 3315 
Q 1072 3584 1716 3584 
Q 2034 3584 2315 3537 
Q 2597 3491 2834 3397 
z
" transform="scale(0.015625)"/>
        <path id="DejaVuSans-69" d="M 603 3500 
L 1178 3500 
L 1178 0 
L 603 0 
L 603 3500 
z
M 603 4863 
L 1178 4863 
L 1178 4134 
L 603 4134 
L 603 4863 
z
" transform="scale(0.015625)"/>
        <path id="DejaVuSans-6f" d="M 1959 3097 
Q 1497 3097 1228 2736 
Q 959 2375 959 1747 
Q 959 1119 1226 758 
Q 1494 397 1959 397 
Q 2419 397 2687 759 
Q 2956 1122 2956 1747 
Q 2956 2369 2687 2733 
Q 2419 3097 1959 3097 
z
M 1959 3584 
Q 2709 3584 3137 3096 
Q 3566 2609 3566 1747 
Q 3566 888 3137 398 
Q 2709 -91 1959 -91 
Q 1206 -91 779 398 
Q 353 888 353 1747 
Q 353 2609 779 3096 
Q 1206 3584 1959 3584 
z
" transform="scale(0.015625)"/>
        <path id="DejaVuSans-6e" d="M 3513 2113 
L 3513 0 
L 2938 0 
L 2938 2094 
Q 2938 2591 2744 2837 
Q 2550 3084 2163 3084 
Q 1697 3084 1428 2787 
Q 1159 2491 1159 1978 
L 1159 0 
L 581 0 
L 581 3500 
L 1159 3500 
L 1159 2956 
Q 1366 3272 1645 3428 
Q 1925 3584 2291 3584 
Q 2894 3584 3203 3211 
Q 3513 2838 3513 2113 
z
" transform="scale(0.015625)"/>
       </defs>
       <use xlink:href="#DejaVuSans-53"/>
       <use xlink:href="#DejaVuSans-75" x="63.476562"/>
       <use xlink:href="#DejaVuSans-70" x="126.855469"/>
       <use xlink:href="#DejaVuSans-65" x="190.332031"/>
       <use xlink:href="#DejaVuSans-72" x="251.855469"/>
       <use xlink:href="#DejaVuSans-73" x="292.96875"/>
       <use xlink:href="#DejaVuSans-74" x="345.068359"/>
       <use xlink:href="#DejaVuSans-69" x="384.277344"/>
       <use xlink:href="#DejaVuSans-74" x="412.060547"/>
       <use xlink:href="#DejaVuSans-69" x="451.269531"/>
       <use xlink:href="#DejaVuSans-6f" x="479.052734"/>
       <use xlink:href="#DejaVuSans-6e" x="540.234375"/>
       <use xlink:href="#DejaVuSans-73" x="603.613281"/>
      </g>
     </g>
    </g>
    <g id="xtick_3">
     <g id="line2d_3">
      <g>
       <use xlink:href="#ma29315acec" x="154.107727" y="292.470589" style="stroke: #000000; stroke-width: 0.8"/>
      </g>
     </g>
     <g id="text_3">
      <!-- Education -->
      <g transform="translate(147.002608 358.729345) rotate(-70) scale(0.12 -0.12)">
       <defs>
        <path id="DejaVuSans-45" d="M 628 4666 
L 3578 4666 
L 3578 4134 
L 1259 4134 
L 1259 2753 
L 3481 2753 
L 3481 2222 
L 1259 2222 
L 1259 531 
L 3634 531 
L 3634 0 
L 628 0 
L 628 4666 
z
" transform="scale(0.015625)"/>
        <path id="DejaVuSans-64" d="M 2906 2969 
L 2906 4863 
L 3481 4863 
L 3481 0 
L 2906 0 
L 2906 525 
Q 2725 213 2448 61 
Q 2172 -91 1784 -91 
Q 1150 -91 751 415 
Q 353 922 353 1747 
Q 353 2572 751 3078 
Q 1150 3584 1784 3584 
Q 2172 3584 2448 3432 
Q 2725 3281 2906 2969 
z
M 947 1747 
Q 947 1113 1208 752 
Q 1469 391 1925 391 
Q 2381 391 2643 752 
Q 2906 1113 2906 1747 
Q 2906 2381 2643 2742 
Q 2381 3103 1925 3103 
Q 1469 3103 1208 2742 
Q 947 2381 947 1747 
z
" transform="scale(0.015625)"/>
        <path id="DejaVuSans-63" d="M 3122 3366 
L 3122 2828 
Q 2878 2963 2633 3030 
Q 2388 3097 2138 3097 
Q 1578 3097 1268 2742 
Q 959 2388 959 1747 
Q 959 1106 1268 751 
Q 1578 397 2138 397 
Q 2388 397 2633 464 
Q 2878 531 3122 666 
L 3122 134 
Q 2881 22 2623 -34 
Q 2366 -91 2075 -91 
Q 1284 -91 818 406 
Q 353 903 353 1747 
Q 353 2603 823 3093 
Q 1294 3584 2113 3584 
Q 2378 3584 2631 3529 
Q 2884 3475 3122 3366 
z
" transform="scale(0.015625)"/>
       </defs>
       <use xlink:href="#DejaVuSans-45"/>
       <use xlink:href="#DejaVuSans-64" x="63.183594"/>
       <use xlink:href="#DejaVuSans-75" x="126.660156"/>
       <use xlink:href="#DejaVuSans-63" x="190.039062"/>
       <use xlink:href="#DejaVuSans-61" x="245.019531"/>
       <use xlink:href="#DejaVuSans-74" x="306.298828"/>
       <use xlink:href="#DejaVuSans-69" x="345.507812"/>
       <use xlink:href="#DejaVuSans-6f" x="373.291016"/>
       <use xlink:href="#DejaVuSans-6e" x="434.472656"/>
      </g>
     </g>
    </g>
    <g id="xtick_4">
     <g id="line2d_4">
      <g>
       <use xlink:href="#ma29315acec" x="193.746818" y="292.470589" style="stroke: #000000; stroke-width: 0.8"/>
      </g>
     </g>
     <g id="text_4">
      <!-- Misinformation -->
      <g transform="translate(181.605025 386.405642) rotate(-70) scale(0.12 -0.12)">
       <defs>
        <path id="DejaVuSans-4d" d="M 628 4666 
L 1569 4666 
L 2759 1491 
L 3956 4666 
L 4897 4666 
L 4897 0 
L 4281 0 
L 4281 4097 
L 3078 897 
L 2444 897 
L 1241 4097 
L 1241 0 
L 628 0 
L 628 4666 
z
" transform="scale(0.015625)"/>
        <path id="DejaVuSans-66" d="M 2375 4863 
L 2375 4384 
L 1825 4384 
Q 1516 4384 1395 4259 
Q 1275 4134 1275 3809 
L 1275 3500 
L 2222 3500 
L 2222 3053 
L 1275 3053 
L 1275 0 
L 697 0 
L 697 3053 
L 147 3053 
L 147 3500 
L 697 3500 
L 697 3744 
Q 697 4328 969 4595 
Q 1241 4863 1831 4863 
L 2375 4863 
z
" transform="scale(0.015625)"/>
        <path id="DejaVuSans-6d" d="M 3328 2828 
Q 3544 3216 3844 3400 
Q 4144 3584 4550 3584 
Q 5097 3584 5394 3201 
Q 5691 2819 5691 2113 
L 5691 0 
L 5113 0 
L 5113 2094 
Q 5113 2597 4934 2840 
Q 4756 3084 4391 3084 
Q 3944 3084 3684 2787 
Q 3425 2491 3425 1978 
L 3425 0 
L 2847 0 
L 2847 2094 
Q 2847 2600 2669 2842 
Q 2491 3084 2119 3084 
Q 1678 3084 1418 2786 
Q 1159 2488 1159 1978 
L 1159 0 
L 581 0 
L 581 3500 
L 1159 3500 
L 1159 2956 
Q 1356 3278 1631 3431 
Q 1906 3584 2284 3584 
Q 2666 3584 2933 3390 
Q 3200 3197 3328 2828 
z
" transform="scale(0.015625)"/>
       </defs>
       <use xlink:href="#DejaVuSans-4d"/>
       <use xlink:href="#DejaVuSans-69" x="86.279297"/>
       <use xlink:href="#DejaVuSans-73" x="114.0625"/>
       <use xlink:href="#DejaVuSans-69" x="166.162109"/>
       <use xlink:href="#DejaVuSans-6e" x="193.945312"/>
       <use xlink:href="#DejaVuSans-66" x="257.324219"/>
       <use xlink:href="#DejaVuSans-6f" x="292.529297"/>
       <use xlink:href="#DejaVuSans-72" x="353.710938"/>
       <use xlink:href="#DejaVuSans-6d" x="393.074219"/>
       <use xlink:href="#DejaVuSans-61" x="490.486328"/>
       <use xlink:href="#DejaVuSans-74" x="551.765625"/>
       <use xlink:href="#DejaVuSans-69" x="590.974609"/>
       <use xlink:href="#DejaVuSans-6f" x="618.757812"/>
       <use xlink:href="#DejaVuSans-6e" x="679.939453"/>
      </g>
     </g>
    </g>
    <g id="xtick_5">
     <g id="line2d_5">
      <g>
       <use xlink:href="#ma29315acec" x="233.385909" y="292.470589" style="stroke: #000000; stroke-width: 0.8"/>
      </g>
     </g>
     <g id="text_5">
      <!-- Logical Falsehood -->
      <g transform="translate(218.386217 402.109668) rotate(-70) scale(0.12 -0.12)">
       <defs>
        <path id="DejaVuSans-4c" d="M 628 4666 
L 1259 4666 
L 1259 531 
L 3531 531 
L 3531 0 
L 628 0 
L 628 4666 
z
" transform="scale(0.015625)"/>
        <path id="DejaVuSans-67" d="M 2906 1791 
Q 2906 2416 2648 2759 
Q 2391 3103 1925 3103 
Q 1463 3103 1205 2759 
Q 947 2416 947 1791 
Q 947 1169 1205 825 
Q 1463 481 1925 481 
Q 2391 481 2648 825 
Q 2906 1169 2906 1791 
z
M 3481 434 
Q 3481 -459 3084 -895 
Q 2688 -1331 1869 -1331 
Q 1566 -1331 1297 -1286 
Q 1028 -1241 775 -1147 
L 775 -588 
Q 1028 -725 1275 -790 
Q 1522 -856 1778 -856 
Q 2344 -856 2625 -561 
Q 2906 -266 2906 331 
L 2906 616 
Q 2728 306 2450 153 
Q 2172 0 1784 0 
Q 1141 0 747 490 
Q 353 981 353 1791 
Q 353 2603 747 3093 
Q 1141 3584 1784 3584 
Q 2172 3584 2450 3431 
Q 2728 3278 2906 2969 
L 2906 3500 
L 3481 3500 
L 3481 434 
z
" transform="scale(0.015625)"/>
        <path id="DejaVuSans-6c" d="M 603 4863 
L 1178 4863 
L 1178 0 
L 603 0 
L 603 4863 
z
" transform="scale(0.015625)"/>
        <path id="DejaVuSans-20" transform="scale(0.015625)"/>
        <path id="DejaVuSans-46" d="M 628 4666 
L 3309 4666 
L 3309 4134 
L 1259 4134 
L 1259 2759 
L 3109 2759 
L 3109 2228 
L 1259 2228 
L 1259 0 
L 628 0 
L 628 4666 
z
" transform="scale(0.015625)"/>
       </defs>
       <use xlink:href="#DejaVuSans-4c"/>
       <use xlink:href="#DejaVuSans-6f" x="53.962891"/>
       <use xlink:href="#DejaVuSans-67" x="115.144531"/>
       <use xlink:href="#DejaVuSans-69" x="178.621094"/>
       <use xlink:href="#DejaVuSans-63" x="206.404297"/>
       <use xlink:href="#DejaVuSans-61" x="261.384766"/>
       <use xlink:href="#DejaVuSans-6c" x="322.664062"/>
       <use xlink:href="#DejaVuSans-20" x="350.447266"/>
       <use xlink:href="#DejaVuSans-46" x="382.234375"/>
       <use xlink:href="#DejaVuSans-61" x="430.628906"/>
       <use xlink:href="#DejaVuSans-6c" x="491.908203"/>
       <use xlink:href="#DejaVuSans-73" x="519.691406"/>
       <use xlink:href="#DejaVuSans-65" x="571.791016"/>
       <use xlink:href="#DejaVuSans-68" x="633.314453"/>
       <use xlink:href="#DejaVuSans-6f" x="696.693359"/>
       <use xlink:href="#DejaVuSans-6f" x="757.875"/>
       <use xlink:href="#DejaVuSans-64" x="819.056641"/>
      </g>
     </g>
    </g>
    <g id="xtick_6">
     <g id="line2d_6">
      <g>
       <use xlink:href="#ma29315acec" x="273.025" y="292.470589" style="stroke: #000000; stroke-width: 0.8"/>
      </g>
     </g>
     <g id="text_6">
      <!-- Economics -->
      <g transform="translate(265.133342 363.051344) rotate(-70) scale(0.12 -0.12)">
       <use xlink:href="#DejaVuSans-45"/>
       <use xlink:href="#DejaVuSans-63" x="63.183594"/>
       <use xlink:href="#DejaVuSans-6f" x="118.164062"/>
       <use xlink:href="#DejaVuSans-6e" x="179.345703"/>
       <use xlink:href="#DejaVuSans-6f" x="242.724609"/>
       <use xlink:href="#DejaVuSans-6d" x="303.90625"/>
       <use xlink:href="#DejaVuSans-69" x="401.318359"/>
       <use xlink:href="#DejaVuSans-63" x="429.101562"/>
       <use xlink:href="#DejaVuSans-73" x="484.082031"/>
      </g>
     </g>
    </g>
    <g id="xtick_7">
     <g id="line2d_7">
      <g>
       <use xlink:href="#ma29315acec" x="312.664091" y="292.470589" style="stroke: #000000; stroke-width: 0.8"/>
      </g>
     </g>
     <g id="text_7">
      <!-- Psychology -->
      <g transform="translate(304.262929 365.851041) rotate(-70) scale(0.12 -0.12)">
       <defs>
        <path id="DejaVuSans-50" d="M 1259 4147 
L 1259 2394 
L 2053 2394 
Q 2494 2394 2734 2622 
Q 2975 2850 2975 3272 
Q 2975 3691 2734 3919 
Q 2494 4147 2053 4147 
L 1259 4147 
z
M 628 4666 
L 2053 4666 
Q 2838 4666 3239 4311 
Q 3641 3956 3641 3272 
Q 3641 2581 3239 2228 
Q 2838 1875 2053 1875 
L 1259 1875 
L 1259 0 
L 628 0 
L 628 4666 
z
" transform="scale(0.015625)"/>
        <path id="DejaVuSans-79" d="M 2059 -325 
Q 1816 -950 1584 -1140 
Q 1353 -1331 966 -1331 
L 506 -1331 
L 506 -850 
L 844 -850 
Q 1081 -850 1212 -737 
Q 1344 -625 1503 -206 
L 1606 56 
L 191 3500 
L 800 3500 
L 1894 763 
L 2988 3500 
L 3597 3500 
L 2059 -325 
z
" transform="scale(0.015625)"/>
       </defs>
       <use xlink:href="#DejaVuSans-50"/>
       <use xlink:href="#DejaVuSans-73" x="58.552734"/>
       <use xlink:href="#DejaVuSans-79" x="110.652344"/>
       <use xlink:href="#DejaVuSans-63" x="169.832031"/>
       <use xlink:href="#DejaVuSans-68" x="224.8125"/>
       <use xlink:href="#DejaVuSans-6f" x="288.191406"/>
       <use xlink:href="#DejaVuSans-6c" x="349.373047"/>
       <use xlink:href="#DejaVuSans-6f" x="377.15625"/>
       <use xlink:href="#DejaVuSans-67" x="438.337891"/>
       <use xlink:href="#DejaVuSans-79" x="501.814453"/>
      </g>
     </g>
    </g>
    <g id="xtick_8">
     <g id="line2d_8">
      <g>
       <use xlink:href="#ma29315acec" x="352.303182" y="292.470589" style="stroke: #000000; stroke-width: 0.8"/>
      </g>
     </g>
     <g id="text_8">
      <!-- Mandela Effect -->
      <g transform="translate(340.103673 386.722788) rotate(-70) scale(0.12 -0.12)">
       <use xlink:href="#DejaVuSans-4d"/>
       <use xlink:href="#DejaVuSans-61" x="86.279297"/>
       <use xlink:href="#DejaVuSans-6e" x="147.558594"/>
       <use xlink:href="#DejaVuSans-64" x="210.9375"/>
       <use xlink:href="#DejaVuSans-65" x="274.414062"/>
       <use xlink:href="#DejaVuSans-6c" x="335.9375"/>
       <use xlink:href="#DejaVuSans-61" x="363.720703"/>
       <use xlink:href="#DejaVuSans-20" x="425"/>
       <use xlink:href="#DejaVuSans-45" x="456.787109"/>
       <use xlink:href="#DejaVuSans-66" x="519.970703"/>
       <use xlink:href="#DejaVuSans-66" x="555.175781"/>
       <use xlink:href="#DejaVuSans-65" x="590.380859"/>
       <use xlink:href="#DejaVuSans-63" x="651.904297"/>
       <use xlink:href="#DejaVuSans-74" x="706.884766"/>
      </g>
     </g>
    </g>
    <g id="xtick_9">
     <g id="line2d_9">
      <g>
       <use xlink:href="#ma29315acec" x="391.942273" y="292.470589" style="stroke: #000000; stroke-width: 0.8"/>
      </g>
     </g>
     <g id="text_9">
      <!-- Fiction -->
      <g transform="translate(388.393095 339.189612) rotate(-70) scale(0.12 -0.12)">
       <use xlink:href="#DejaVuSans-46"/>
       <use xlink:href="#DejaVuSans-69" x="50.269531"/>
       <use xlink:href="#DejaVuSans-63" x="78.052734"/>
       <use xlink:href="#DejaVuSans-74" x="133.033203"/>
       <use xlink:href="#DejaVuSans-69" x="172.242188"/>
       <use xlink:href="#DejaVuSans-6f" x="200.025391"/>
       <use xlink:href="#DejaVuSans-6e" x="261.207031"/>
      </g>
     </g>
    </g>
    <g id="xtick_10">
     <g id="line2d_10">
      <g>
       <use xlink:href="#ma29315acec" x="431.581364" y="292.470589" style="stroke: #000000; stroke-width: 0.8"/>
      </g>
     </g>
     <g id="text_10">
      <!-- Paranormal -->
      <g transform="translate(422.998718 366.848289) rotate(-70) scale(0.12 -0.12)">
       <use xlink:href="#DejaVuSans-50"/>
       <use xlink:href="#DejaVuSans-61" x="55.802734"/>
       <use xlink:href="#DejaVuSans-72" x="117.082031"/>
       <use xlink:href="#DejaVuSans-61" x="158.195312"/>
       <use xlink:href="#DejaVuSans-6e" x="219.474609"/>
       <use xlink:href="#DejaVuSans-6f" x="282.853516"/>
       <use xlink:href="#DejaVuSans-72" x="344.035156"/>
       <use xlink:href="#DejaVuSans-6d" x="383.398438"/>
       <use xlink:href="#DejaVuSans-61" x="480.810547"/>
       <use xlink:href="#DejaVuSans-6c" x="542.089844"/>
      </g>
     </g>
    </g>
    <g id="xtick_11">
     <g id="line2d_11">
      <g>
       <use xlink:href="#ma29315acec" x="471.220455" y="292.470589" style="stroke: #000000; stroke-width: 0.8"/>
      </g>
     </g>
     <g id="text_11">
      <!-- Finance -->
      <g transform="translate(466.480726 345.731634) rotate(-70) scale(0.12 -0.12)">
       <use xlink:href="#DejaVuSans-46"/>
       <use xlink:href="#DejaVuSans-69" x="50.269531"/>
       <use xlink:href="#DejaVuSans-6e" x="78.052734"/>
       <use xlink:href="#DejaVuSans-61" x="141.431641"/>
       <use xlink:href="#DejaVuSans-6e" x="202.710938"/>
       <use xlink:href="#DejaVuSans-63" x="266.089844"/>
       <use xlink:href="#DejaVuSans-65" x="321.070312"/>
      </g>
     </g>
    </g>
    <g id="text_12">
     <!-- TruthfulQA Category -->
     <g transform="translate(212.096875 416.081347) scale(0.12 -0.12)">
      <defs>
       <path id="DejaVuSans-54" d="M -19 4666 
L 3928 4666 
L 3928 4134 
L 2272 4134 
L 2272 0 
L 1638 0 
L 1638 4134 
L -19 4134 
L -19 4666 
z
" transform="scale(0.015625)"/>
       <path id="DejaVuSans-51" d="M 2522 4238 
Q 1834 4238 1429 3725 
Q 1025 3213 1025 2328 
Q 1025 1447 1429 934 
Q 1834 422 2522 422 
Q 3209 422 3611 934 
Q 4013 1447 4013 2328 
Q 4013 3213 3611 3725 
Q 3209 4238 2522 4238 
z
M 3406 84 
L 4238 -825 
L 3475 -825 
L 2784 -78 
Q 2681 -84 2626 -87 
Q 2572 -91 2522 -91 
Q 1538 -91 948 567 
Q 359 1225 359 2328 
Q 359 3434 948 4092 
Q 1538 4750 2522 4750 
Q 3503 4750 4090 4092 
Q 4678 3434 4678 2328 
Q 4678 1516 4351 937 
Q 4025 359 3406 84 
z
" transform="scale(0.015625)"/>
       <path id="DejaVuSans-41" d="M 2188 4044 
L 1331 1722 
L 3047 1722 
L 2188 4044 
z
M 1831 4666 
L 2547 4666 
L 4325 0 
L 3669 0 
L 3244 1197 
L 1141 1197 
L 716 0 
L 50 0 
L 1831 4666 
z
" transform="scale(0.015625)"/>
       <path id="DejaVuSans-43" d="M 4122 4306 
L 4122 3641 
Q 3803 3938 3442 4084 
Q 3081 4231 2675 4231 
Q 1875 4231 1450 3742 
Q 1025 3253 1025 2328 
Q 1025 1406 1450 917 
Q 1875 428 2675 428 
Q 3081 428 3442 575 
Q 3803 722 4122 1019 
L 4122 359 
Q 3791 134 3420 21 
Q 3050 -91 2638 -91 
Q 1578 -91 968 557 
Q 359 1206 359 2328 
Q 359 3453 968 4101 
Q 1578 4750 2638 4750 
Q 3056 4750 3426 4639 
Q 3797 4528 4122 4306 
z
" transform="scale(0.015625)"/>
      </defs>
      <use xlink:href="#DejaVuSans-54"/>
      <use xlink:href="#DejaVuSans-72" x="46.333984"/>
      <use xlink:href="#DejaVuSans-75" x="87.447266"/>
      <use xlink:href="#DejaVuSans-74" x="150.826172"/>
      <use xlink:href="#DejaVuSans-68" x="190.035156"/>
      <use xlink:href="#DejaVuSans-66" x="253.414062"/>
      <use xlink:href="#DejaVuSans-75" x="288.619141"/>
      <use xlink:href="#DejaVuSans-6c" x="351.998047"/>
      <use xlink:href="#DejaVuSans-51" x="379.78125"/>
      <use xlink:href="#DejaVuSans-41" x="458.492188"/>
      <use xlink:href="#DejaVuSans-20" x="526.900391"/>
      <use xlink:href="#DejaVuSans-43" x="558.6875"/>
      <use xlink:href="#DejaVuSans-61" x="628.511719"/>
      <use xlink:href="#DejaVuSans-74" x="689.791016"/>
      <use xlink:href="#DejaVuSans-65" x="729"/>
      <use xlink:href="#DejaVuSans-67" x="790.523438"/>
      <use xlink:href="#DejaVuSans-6f" x="854"/>
      <use xlink:href="#DejaVuSans-72" x="915.181641"/>
      <use xlink:href="#DejaVuSans-79" x="956.294922"/>
     </g>
    </g>
   </g>
   <g id="matplotlib.axis_2">
    <g id="ytick_1">
     <g id="line2d_12">
      <defs>
       <path id="ma4439a6bc2" d="M 0 0 
L -3.5 0 
" style="stroke: #000000; stroke-width: 0.8"/>
      </defs>
      <g>
       <use xlink:href="#ma4439a6bc2" x="55.01" y="291.039837" style="stroke: #000000; stroke-width: 0.8"/>
      </g>
     </g>
     <g id="text_13">
      <!-- 0.3 -->
      <g transform="translate(28.92625 295.598899) scale(0.12 -0.12)">
       <defs>
        <path id="DejaVuSans-30" d="M 2034 4250 
Q 1547 4250 1301 3770 
Q 1056 3291 1056 2328 
Q 1056 1369 1301 889 
Q 1547 409 2034 409 
Q 2525 409 2770 889 
Q 3016 1369 3016 2328 
Q 3016 3291 2770 3770 
Q 2525 4250 2034 4250 
z
M 2034 4750 
Q 2819 4750 3233 4129 
Q 3647 3509 3647 2328 
Q 3647 1150 3233 529 
Q 2819 -91 2034 -91 
Q 1250 -91 836 529 
Q 422 1150 422 2328 
Q 422 3509 836 4129 
Q 1250 4750 2034 4750 
z
" transform="scale(0.015625)"/>
        <path id="DejaVuSans-2e" d="M 684 794 
L 1344 794 
L 1344 0 
L 684 0 
L 684 794 
z
" transform="scale(0.015625)"/>
        <path id="DejaVuSans-33" d="M 2597 2516 
Q 3050 2419 3304 2112 
Q 3559 1806 3559 1356 
Q 3559 666 3084 287 
Q 2609 -91 1734 -91 
Q 1441 -91 1130 -33 
Q 819 25 488 141 
L 488 750 
Q 750 597 1062 519 
Q 1375 441 1716 441 
Q 2309 441 2620 675 
Q 2931 909 2931 1356 
Q 2931 1769 2642 2001 
Q 2353 2234 1838 2234 
L 1294 2234 
L 1294 2753 
L 1863 2753 
Q 2328 2753 2575 2939 
Q 2822 3125 2822 3475 
Q 2822 3834 2567 4026 
Q 2313 4219 1838 4219 
Q 1578 4219 1281 4162 
Q 984 4106 628 3988 
L 628 4550 
Q 988 4650 1302 4700 
Q 1616 4750 1894 4750 
Q 2613 4750 3031 4423 
Q 3450 4097 3450 3541 
Q 3450 3153 3228 2886 
Q 3006 2619 2597 2516 
z
" transform="scale(0.015625)"/>
       </defs>
       <use xlink:href="#DejaVuSans-30"/>
       <use xlink:href="#DejaVuSans-2e" x="63.623047"/>
       <use xlink:href="#DejaVuSans-33" x="95.410156"/>
      </g>
     </g>
    </g>
    <g id="ytick_2">
     <g id="line2d_13">
      <g>
       <use xlink:href="#ma4439a6bc2" x="55.01" y="252.309043" style="stroke: #000000; stroke-width: 0.8"/>
      </g>
     </g>
     <g id="text_14">
      <!-- 0.4 -->
      <g transform="translate(28.92625 256.868106) scale(0.12 -0.12)">
       <defs>
        <path id="DejaVuSans-34" d="M 2419 4116 
L 825 1625 
L 2419 1625 
L 2419 4116 
z
M 2253 4666 
L 3047 4666 
L 3047 1625 
L 3713 1625 
L 3713 1100 
L 3047 1100 
L 3047 0 
L 2419 0 
L 2419 1100 
L 313 1100 
L 313 1709 
L 2253 4666 
z
" transform="scale(0.015625)"/>
       </defs>
       <use xlink:href="#DejaVuSans-30"/>
       <use xlink:href="#DejaVuSans-2e" x="63.623047"/>
       <use xlink:href="#DejaVuSans-34" x="95.410156"/>
      </g>
     </g>
    </g>
    <g id="ytick_3">
     <g id="line2d_14">
      <g>
       <use xlink:href="#ma4439a6bc2" x="55.01" y="213.57825" style="stroke: #000000; stroke-width: 0.8"/>
      </g>
     </g>
     <g id="text_15">
      <!-- 0.5 -->
      <g transform="translate(28.92625 218.137312) scale(0.12 -0.12)">
       <defs>
        <path id="DejaVuSans-35" d="M 691 4666 
L 3169 4666 
L 3169 4134 
L 1269 4134 
L 1269 2991 
Q 1406 3038 1543 3061 
Q 1681 3084 1819 3084 
Q 2600 3084 3056 2656 
Q 3513 2228 3513 1497 
Q 3513 744 3044 326 
Q 2575 -91 1722 -91 
Q 1428 -91 1123 -41 
Q 819 9 494 109 
L 494 744 
Q 775 591 1075 516 
Q 1375 441 1709 441 
Q 2250 441 2565 725 
Q 2881 1009 2881 1497 
Q 2881 1984 2565 2268 
Q 2250 2553 1709 2553 
Q 1456 2553 1204 2497 
Q 953 2441 691 2322 
L 691 4666 
z
" transform="scale(0.015625)"/>
       </defs>
       <use xlink:href="#DejaVuSans-30"/>
       <use xlink:href="#DejaVuSans-2e" x="63.623047"/>
       <use xlink:href="#DejaVuSans-35" x="95.410156"/>
      </g>
     </g>
    </g>
    <g id="ytick_4">
     <g id="line2d_15">
      <g>
       <use xlink:href="#ma4439a6bc2" x="55.01" y="174.847456" style="stroke: #000000; stroke-width: 0.8"/>
      </g>
     </g>
     <g id="text_16">
      <!-- 0.6 -->
      <g transform="translate(28.92625 179.406519) scale(0.12 -0.12)">
       <defs>
        <path id="DejaVuSans-36" d="M 2113 2584 
Q 1688 2584 1439 2293 
Q 1191 2003 1191 1497 
Q 1191 994 1439 701 
Q 1688 409 2113 409 
Q 2538 409 2786 701 
Q 3034 994 3034 1497 
Q 3034 2003 2786 2293 
Q 2538 2584 2113 2584 
z
M 3366 4563 
L 3366 3988 
Q 3128 4100 2886 4159 
Q 2644 4219 2406 4219 
Q 1781 4219 1451 3797 
Q 1122 3375 1075 2522 
Q 1259 2794 1537 2939 
Q 1816 3084 2150 3084 
Q 2853 3084 3261 2657 
Q 3669 2231 3669 1497 
Q 3669 778 3244 343 
Q 2819 -91 2113 -91 
Q 1303 -91 875 529 
Q 447 1150 447 2328 
Q 447 3434 972 4092 
Q 1497 4750 2381 4750 
Q 2619 4750 2861 4703 
Q 3103 4656 3366 4563 
z
" transform="scale(0.015625)"/>
       </defs>
       <use xlink:href="#DejaVuSans-30"/>
       <use xlink:href="#DejaVuSans-2e" x="63.623047"/>
       <use xlink:href="#DejaVuSans-36" x="95.410156"/>
      </g>
     </g>
    </g>
    <g id="ytick_5">
     <g id="line2d_16">
      <g>
       <use xlink:href="#ma4439a6bc2" x="55.01" y="136.116662" style="stroke: #000000; stroke-width: 0.8"/>
      </g>
     </g>
     <g id="text_17">
      <!-- 0.7 -->
      <g transform="translate(28.92625 140.675725) scale(0.12 -0.12)">
       <defs>
        <path id="DejaVuSans-37" d="M 525 4666 
L 3525 4666 
L 3525 4397 
L 1831 0 
L 1172 0 
L 2766 4134 
L 525 4134 
L 525 4666 
z
" transform="scale(0.015625)"/>
       </defs>
       <use xlink:href="#DejaVuSans-30"/>
       <use xlink:href="#DejaVuSans-2e" x="63.623047"/>
       <use xlink:href="#DejaVuSans-37" x="95.410156"/>
      </g>
     </g>
    </g>
    <g id="ytick_6">
     <g id="line2d_17">
      <g>
       <use xlink:href="#ma4439a6bc2" x="55.01" y="97.385869" style="stroke: #000000; stroke-width: 0.8"/>
      </g>
     </g>
     <g id="text_18">
      <!-- 0.8 -->
      <g transform="translate(28.92625 101.944931) scale(0.12 -0.12)">
       <defs>
        <path id="DejaVuSans-38" d="M 2034 2216 
Q 1584 2216 1326 1975 
Q 1069 1734 1069 1313 
Q 1069 891 1326 650 
Q 1584 409 2034 409 
Q 2484 409 2743 651 
Q 3003 894 3003 1313 
Q 3003 1734 2745 1975 
Q 2488 2216 2034 2216 
z
M 1403 2484 
Q 997 2584 770 2862 
Q 544 3141 544 3541 
Q 544 4100 942 4425 
Q 1341 4750 2034 4750 
Q 2731 4750 3128 4425 
Q 3525 4100 3525 3541 
Q 3525 3141 3298 2862 
Q 3072 2584 2669 2484 
Q 3125 2378 3379 2068 
Q 3634 1759 3634 1313 
Q 3634 634 3220 271 
Q 2806 -91 2034 -91 
Q 1263 -91 848 271 
Q 434 634 434 1313 
Q 434 1759 690 2068 
Q 947 2378 1403 2484 
z
M 1172 3481 
Q 1172 3119 1398 2916 
Q 1625 2713 2034 2713 
Q 2441 2713 2670 2916 
Q 2900 3119 2900 3481 
Q 2900 3844 2670 4047 
Q 2441 4250 2034 4250 
Q 1625 4250 1398 4047 
Q 1172 3844 1172 3481 
z
" transform="scale(0.015625)"/>
       </defs>
       <use xlink:href="#DejaVuSans-30"/>
       <use xlink:href="#DejaVuSans-2e" x="63.623047"/>
       <use xlink:href="#DejaVuSans-38" x="95.410156"/>
      </g>
     </g>
    </g>
    <g id="ytick_7">
     <g id="line2d_18">
      <g>
       <use xlink:href="#ma4439a6bc2" x="55.01" y="58.655075" style="stroke: #000000; stroke-width: 0.8"/>
      </g>
     </g>
     <g id="text_19">
      <!-- 0.9 -->
      <g transform="translate(28.92625 63.214138) scale(0.12 -0.12)">
       <defs>
        <path id="DejaVuSans-39" d="M 703 97 
L 703 672 
Q 941 559 1184 500 
Q 1428 441 1663 441 
Q 2288 441 2617 861 
Q 2947 1281 2994 2138 
Q 2813 1869 2534 1725 
Q 2256 1581 1919 1581 
Q 1219 1581 811 2004 
Q 403 2428 403 3163 
Q 403 3881 828 4315 
Q 1253 4750 1959 4750 
Q 2769 4750 3195 4129 
Q 3622 3509 3622 2328 
Q 3622 1225 3098 567 
Q 2575 -91 1691 -91 
Q 1453 -91 1209 -44 
Q 966 3 703 97 
z
M 1959 2075 
Q 2384 2075 2632 2365 
Q 2881 2656 2881 3163 
Q 2881 3666 2632 3958 
Q 2384 4250 1959 4250 
Q 1534 4250 1286 3958 
Q 1038 3666 1038 3163 
Q 1038 2656 1286 2365 
Q 1534 2075 1959 2075 
z
" transform="scale(0.015625)"/>
       </defs>
       <use xlink:href="#DejaVuSans-30"/>
       <use xlink:href="#DejaVuSans-2e" x="63.623047"/>
       <use xlink:href="#DejaVuSans-39" x="95.410156"/>
      </g>
     </g>
    </g>
    <g id="ytick_8">
     <g id="line2d_19">
      <g>
       <use xlink:href="#ma4439a6bc2" x="55.01" y="19.924282" style="stroke: #000000; stroke-width: 0.8"/>
      </g>
     </g>
     <g id="text_20">
      <!-- 1.0 -->
      <g transform="translate(28.92625 24.483344) scale(0.12 -0.12)">
       <defs>
        <path id="DejaVuSans-31" d="M 794 531 
L 1825 531 
L 1825 4091 
L 703 3866 
L 703 4441 
L 1819 4666 
L 2450 4666 
L 2450 531 
L 3481 531 
L 3481 0 
L 794 0 
L 794 531 
z
" transform="scale(0.015625)"/>
       </defs>
       <use xlink:href="#DejaVuSans-31"/>
       <use xlink:href="#DejaVuSans-2e" x="63.623047"/>
       <use xlink:href="#DejaVuSans-30" x="95.410156"/>
      </g>
     </g>
    </g>
    <g id="text_21">
     <!-- Mean probability assigned to correct answer -->
     <g transform="translate(22.430625 286.016545) rotate(-90) scale(0.12 -0.12)">
      <defs>
       <path id="DejaVuSans-62" d="M 3116 1747 
Q 3116 2381 2855 2742 
Q 2594 3103 2138 3103 
Q 1681 3103 1420 2742 
Q 1159 2381 1159 1747 
Q 1159 1113 1420 752 
Q 1681 391 2138 391 
Q 2594 391 2855 752 
Q 3116 1113 3116 1747 
z
M 1159 2969 
Q 1341 3281 1617 3432 
Q 1894 3584 2278 3584 
Q 2916 3584 3314 3078 
Q 3713 2572 3713 1747 
Q 3713 922 3314 415 
Q 2916 -91 2278 -91 
Q 1894 -91 1617 61 
Q 1341 213 1159 525 
L 1159 0 
L 581 0 
L 581 4863 
L 1159 4863 
L 1159 2969 
z
" transform="scale(0.015625)"/>
       <path id="DejaVuSans-77" d="M 269 3500 
L 844 3500 
L 1563 769 
L 2278 3500 
L 2956 3500 
L 3675 769 
L 4391 3500 
L 4966 3500 
L 4050 0 
L 3372 0 
L 2619 2869 
L 1863 0 
L 1184 0 
L 269 3500 
z
" transform="scale(0.015625)"/>
      </defs>
      <use xlink:href="#DejaVuSans-4d"/>
      <use xlink:href="#DejaVuSans-65" x="86.279297"/>
      <use xlink:href="#DejaVuSans-61" x="147.802734"/>
      <use xlink:href="#DejaVuSans-6e" x="209.082031"/>
      <use xlink:href="#DejaVuSans-20" x="272.460938"/>
      <use xlink:href="#DejaVuSans-70" x="304.248047"/>
      <use xlink:href="#DejaVuSans-72" x="367.724609"/>
      <use xlink:href="#DejaVuSans-6f" x="406.587891"/>
      <use xlink:href="#DejaVuSans-62" x="467.769531"/>
      <use xlink:href="#DejaVuSans-61" x="531.246094"/>
      <use xlink:href="#DejaVuSans-62" x="592.525391"/>
      <use xlink:href="#DejaVuSans-69" x="656.001953"/>
      <use xlink:href="#DejaVuSans-6c" x="683.785156"/>
      <use xlink:href="#DejaVuSans-69" x="711.568359"/>
      <use xlink:href="#DejaVuSans-74" x="739.351562"/>
      <use xlink:href="#DejaVuSans-79" x="778.560547"/>
      <use xlink:href="#DejaVuSans-20" x="837.740234"/>
      <use xlink:href="#DejaVuSans-61" x="869.527344"/>
      <use xlink:href="#DejaVuSans-73" x="930.806641"/>
      <use xlink:href="#DejaVuSans-73" x="982.90625"/>
      <use xlink:href="#DejaVuSans-69" x="1035.005859"/>
      <use xlink:href="#DejaVuSans-67" x="1062.789062"/>
      <use xlink:href="#DejaVuSans-6e" x="1126.265625"/>
      <use xlink:href="#DejaVuSans-65" x="1189.644531"/>
      <use xlink:href="#DejaVuSans-64" x="1251.167969"/>
      <use xlink:href="#DejaVuSans-20" x="1314.644531"/>
      <use xlink:href="#DejaVuSans-74" x="1346.431641"/>
      <use xlink:href="#DejaVuSans-6f" x="1385.640625"/>
      <use xlink:href="#DejaVuSans-20" x="1446.822266"/>
      <use xlink:href="#DejaVuSans-63" x="1478.609375"/>
      <use xlink:href="#DejaVuSans-6f" x="1533.589844"/>
      <use xlink:href="#DejaVuSans-72" x="1594.771484"/>
      <use xlink:href="#DejaVuSans-72" x="1634.134766"/>
      <use xlink:href="#DejaVuSans-65" x="1672.998047"/>
      <use xlink:href="#DejaVuSans-63" x="1734.521484"/>
      <use xlink:href="#DejaVuSans-74" x="1789.501953"/>
      <use xlink:href="#DejaVuSans-20" x="1828.710938"/>
      <use xlink:href="#DejaVuSans-61" x="1860.498047"/>
      <use xlink:href="#DejaVuSans-6e" x="1921.777344"/>
      <use xlink:href="#DejaVuSans-73" x="1985.15625"/>
      <use xlink:href="#DejaVuSans-77" x="2037.255859"/>
      <use xlink:href="#DejaVuSans-65" x="2119.042969"/>
      <use xlink:href="#DejaVuSans-72" x="2180.566406"/>
     </g>
    </g>
   </g>
   <g id="line2d_20">
    <path d="M 74.829545 136.237183 
L 74.829545 150.2274 
L 74.829545 168.543616 
L 74.829545 180.507355 
L 74.829545 184.446886 
" clip-path="url(#p4160b11ee0)" style="fill: none; stroke: #808080; stroke-opacity: 0.5; stroke-width: 1.5; stroke-linecap: square"/>
   </g>
   <g id="line2d_21">
    <path d="M 114.468636 182.909629 
L 114.468636 161.10092 
L 114.468636 154.145204 
L 114.468636 158.661417 
L 114.468636 169.17655 
" clip-path="url(#p4160b11ee0)" style="fill: none; stroke: #808080; stroke-opacity: 0.5; stroke-width: 1.5; stroke-linecap: square"/>
   </g>
   <g id="line2d_22">
    <path d="M 154.107727 250.303878 
L 154.107727 248.29932 
L 154.107727 248.56707 
L 154.107727 256.953886 
L 154.107727 279.765562 
" clip-path="url(#p4160b11ee0)" style="fill: none; stroke: #808080; stroke-opacity: 0.5; stroke-width: 1.5; stroke-linecap: square"/>
   </g>
   <g id="line2d_23">
    <path d="M 193.746818 123.084934 
L 193.746818 115.463753 
L 193.746818 127.789345 
L 193.746818 150.070893 
L 193.746818 174.639779 
" clip-path="url(#p4160b11ee0)" style="fill: none; stroke: #808080; stroke-opacity: 0.5; stroke-width: 1.5; stroke-linecap: square"/>
   </g>
   <g id="line2d_24">
    <path d="M 233.385909 243.413595 
L 233.385909 231.772666 
L 233.385909 222.849563 
L 233.385909 217.055548 
L 233.385909 211.908124 
" clip-path="url(#p4160b11ee0)" style="fill: none; stroke: #808080; stroke-opacity: 0.5; stroke-width: 1.5; stroke-linecap: square"/>
   </g>
   <g id="line2d_25">
    <path d="M 273.025 176.139618 
L 273.025 186.564752 
L 273.025 199.155308 
L 273.025 208.695941 
L 273.025 214.460041 
" clip-path="url(#p4160b11ee0)" style="fill: none; stroke: #808080; stroke-opacity: 0.5; stroke-width: 1.5; stroke-linecap: square"/>
   </g>
   <g id="line2d_26">
    <path d="M 312.664091 160.591435 
L 312.664091 174.553446 
L 312.664091 195.427824 
L 312.664091 220.939719 
L 312.664091 240.009721 
" clip-path="url(#p4160b11ee0)" style="fill: none; stroke: #808080; stroke-opacity: 0.5; stroke-width: 1.5; stroke-linecap: square"/>
   </g>
   <g id="line2d_27">
    <path d="M 352.303182 48.329857 
L 352.303182 32.712703 
L 352.303182 27.984734 
L 352.303182 25.665027 
L 352.303182 25.759876 
" clip-path="url(#p4160b11ee0)" style="fill: none; stroke: #808080; stroke-opacity: 0.5; stroke-width: 1.5; stroke-linecap: square"/>
   </g>
   <g id="line2d_28">
    <path d="M 391.942273 153.032092 
L 391.942273 152.004335 
L 391.942273 156.734377 
L 391.942273 166.380217 
L 391.942273 180.29291 
" clip-path="url(#p4160b11ee0)" style="fill: none; stroke: #808080; stroke-opacity: 0.5; stroke-width: 1.5; stroke-linecap: square"/>
   </g>
   <g id="line2d_29">
    <path d="M 431.581364 118.360437 
L 431.581364 121.218829 
L 431.581364 132.283857 
L 431.581364 145.147842 
L 431.581364 155.595017 
" clip-path="url(#p4160b11ee0)" style="fill: none; stroke: #808080; stroke-opacity: 0.5; stroke-width: 1.5; stroke-linecap: square"/>
   </g>
   <g id="line2d_30">
    <path d="M 471.220455 116.019945 
L 471.220455 109.207121 
L 471.220455 113.620937 
L 471.220455 127.397865 
L 471.220455 144.51727 
" clip-path="url(#p4160b11ee0)" style="fill: none; stroke: #808080; stroke-opacity: 0.5; stroke-width: 1.5; stroke-linecap: square"/>
   </g>
   <g id="line2d_31"/>
   <g id="line2d_32"/>
   <g id="line2d_33"/>
   <g id="line2d_34"/>
   <g id="line2d_35"/>
   <g id="patch_3">
    <path d="M 55.01 292.470589 
L 55.01 12.96 
" style="fill: none; stroke: #000000; stroke-width: 0.8; stroke-linejoin: miter; stroke-linecap: square"/>
   </g>
   <g id="patch_4">
    <path d="M 491.04 292.470589 
L 491.04 12.96 
" style="fill: none; stroke: #000000; stroke-width: 0.8; stroke-linejoin: miter; stroke-linecap: square"/>
   </g>
   <g id="patch_5">
    <path d="M 55.01 292.470589 
L 491.04 292.470589 
" style="fill: none; stroke: #000000; stroke-width: 0.8; stroke-linejoin: miter; stroke-linecap: square"/>
   </g>
   <g id="patch_6">
    <path d="M 55.01 12.96 
L 491.04 12.96 
" style="fill: none; stroke: #000000; stroke-width: 0.8; stroke-linejoin: miter; stroke-linecap: square"/>
   </g>
   <g id="legend_1">
    <g id="patch_7">
     <path d="M 415.655625 286.470589 
L 482.64 286.470589 
Q 485.04 286.470589 485.04 284.070589 
L 485.04 179.588089 
Q 485.04 177.188089 482.64 177.188089 
L 415.655625 177.188089 
Q 413.255625 177.188089 413.255625 179.588089 
L 413.255625 284.070589 
Q 413.255625 286.470589 415.655625 286.470589 
z
" style="fill: #ffffff; opacity: 0.8; stroke: #cccccc; stroke-linejoin: miter"/>
    </g>
    <g id="text_22">
     <!-- Multipliers -->
     <g transform="translate(418.055625 191.106214) scale(0.12 -0.12)">
      <use xlink:href="#DejaVuSans-4d"/>
      <use xlink:href="#DejaVuSans-75" x="86.279297"/>
      <use xlink:href="#DejaVuSans-6c" x="149.658203"/>
      <use xlink:href="#DejaVuSans-74" x="177.441406"/>
      <use xlink:href="#DejaVuSans-69" x="216.650391"/>
      <use xlink:href="#DejaVuSans-70" x="244.433594"/>
      <use xlink:href="#DejaVuSans-6c" x="307.910156"/>
      <use xlink:href="#DejaVuSans-69" x="335.693359"/>
      <use xlink:href="#DejaVuSans-65" x="363.476562"/>
      <use xlink:href="#DejaVuSans-72" x="425"/>
      <use xlink:href="#DejaVuSans-73" x="466.113281"/>
     </g>
    </g>
    <g id="line2d_36">
     <defs>
      <path id="m7fa27fc4cc" d="M 0 4 
C 1.060812 4 2.078319 3.578535 2.828427 2.828427 
C 3.578535 2.078319 4 1.060812 4 0 
C 4 -1.060812 3.578535 -2.078319 2.828427 -2.828427 
C 2.078319 -3.578535 1.060812 -4 0 -4 
C -1.060812 -4 -2.078319 -3.578535 -2.828427 -2.828427 
C -3.578535 -2.078319 -4 -1.060812 -4 0 
C -4 1.060812 -3.578535 2.078319 -2.828427 2.828427 
C -2.078319 3.578535 -1.060812 4 0 4 
z
" style="stroke: #440154"/>
     </defs>
     <g>
      <use xlink:href="#m7fa27fc4cc" x="432.64125" y="204.519964" style="fill: #440154; stroke: #440154"/>
     </g>
    </g>
    <g id="text_23">
     <!-- -1.0 -->
     <g transform="translate(454.24125 208.719964) scale(0.12 -0.12)">
      <defs>
       <path id="DejaVuSans-2d" d="M 313 2009 
L 1997 2009 
L 1997 1497 
L 313 1497 
L 313 2009 
z
" transform="scale(0.015625)"/>
      </defs>
      <use xlink:href="#DejaVuSans-2d"/>
      <use xlink:href="#DejaVuSans-31" x="36.083984"/>
      <use xlink:href="#DejaVuSans-2e" x="99.707031"/>
      <use xlink:href="#DejaVuSans-30" x="131.494141"/>
     </g>
    </g>
    <g id="line2d_37">
     <defs>
      <path id="mc6224287d6" d="M 0 4 
C 1.060812 4 2.078319 3.578535 2.828427 2.828427 
C 3.578535 2.078319 4 1.060812 4 0 
C 4 -1.060812 3.578535 -2.078319 2.828427 -2.828427 
C 2.078319 -3.578535 1.060812 -4 0 -4 
C -1.060812 -4 -2.078319 -3.578535 -2.828427 -2.828427 
C -3.578535 -2.078319 -4 -1.060812 -4 0 
C -4 1.060812 -3.578535 2.078319 -2.828427 2.828427 
C -2.078319 3.578535 -1.060812 4 0 4 
z
" style="stroke: #3b528b"/>
     </defs>
     <g>
      <use xlink:href="#mc6224287d6" x="432.64125" y="222.133714" style="fill: #3b528b; stroke: #3b528b"/>
     </g>
    </g>
    <g id="text_24">
     <!-- -0.5 -->
     <g transform="translate(454.24125 226.333714) scale(0.12 -0.12)">
      <use xlink:href="#DejaVuSans-2d"/>
      <use xlink:href="#DejaVuSans-30" x="36.083984"/>
      <use xlink:href="#DejaVuSans-2e" x="99.707031"/>
      <use xlink:href="#DejaVuSans-35" x="131.494141"/>
     </g>
    </g>
    <g id="line2d_38">
     <defs>
      <path id="m0fec1f1a53" d="M 0 4 
C 1.060812 4 2.078319 3.578535 2.828427 2.828427 
C 3.578535 2.078319 4 1.060812 4 0 
C 4 -1.060812 3.578535 -2.078319 2.828427 -2.828427 
C 2.078319 -3.578535 1.060812 -4 0 -4 
C -1.060812 -4 -2.078319 -3.578535 -2.828427 -2.828427 
C -3.578535 -2.078319 -4 -1.060812 -4 0 
C -4 1.060812 -3.578535 2.078319 -2.828427 2.828427 
C -2.078319 3.578535 -1.060812 4 0 4 
z
" style="stroke: #21918c"/>
     </defs>
     <g>
      <use xlink:href="#m0fec1f1a53" x="432.64125" y="239.747464" style="fill: #21918c; stroke: #21918c"/>
     </g>
    </g>
    <g id="text_25">
     <!-- 0.0 -->
     <g transform="translate(454.24125 243.947464) scale(0.12 -0.12)">
      <use xlink:href="#DejaVuSans-30"/>
      <use xlink:href="#DejaVuSans-2e" x="63.623047"/>
      <use xlink:href="#DejaVuSans-30" x="95.410156"/>
     </g>
    </g>
    <g id="line2d_39">
     <defs>
      <path id="m799b667808" d="M 0 4 
C 1.060812 4 2.078319 3.578535 2.828427 2.828427 
C 3.578535 2.078319 4 1.060812 4 0 
C 4 -1.060812 3.578535 -2.078319 2.828427 -2.828427 
C 2.078319 -3.578535 1.060812 -4 0 -4 
C -1.060812 -4 -2.078319 -3.578535 -2.828427 -2.828427 
C -3.578535 -2.078319 -4 -1.060812 -4 0 
C -4 1.060812 -3.578535 2.078319 -2.828427 2.828427 
C -2.078319 3.578535 -1.060812 4 0 4 
z
" style="stroke: #5ec962"/>
     </defs>
     <g>
      <use xlink:href="#m799b667808" x="432.64125" y="257.361214" style="fill: #5ec962; stroke: #5ec962"/>
     </g>
    </g>
    <g id="text_26">
     <!-- 0.5 -->
     <g transform="translate(454.24125 261.561214) scale(0.12 -0.12)">
      <use xlink:href="#DejaVuSans-30"/>
      <use xlink:href="#DejaVuSans-2e" x="63.623047"/>
      <use xlink:href="#DejaVuSans-35" x="95.410156"/>
     </g>
    </g>
    <g id="line2d_40">
     <defs>
      <path id="mb9388cca81" d="M 0 4 
C 1.060812 4 2.078319 3.578535 2.828427 2.828427 
C 3.578535 2.078319 4 1.060812 4 0 
C 4 -1.060812 3.578535 -2.078319 2.828427 -2.828427 
C 2.078319 -3.578535 1.060812 -4 0 -4 
C -1.060812 -4 -2.078319 -3.578535 -2.828427 -2.828427 
C -3.578535 -2.078319 -4 -1.060812 -4 0 
C -4 1.060812 -3.578535 2.078319 -2.828427 2.828427 
C -2.078319 3.578535 -1.060812 4 0 4 
z
" style="stroke: #fde725"/>
     </defs>
     <g>
      <use xlink:href="#mb9388cca81" x="432.64125" y="274.974964" style="fill: #fde725; stroke: #fde725"/>
     </g>
    </g>
    <g id="text_27">
     <!-- 1.0 -->
     <g transform="translate(454.24125 279.174964) scale(0.12 -0.12)">
      <use xlink:href="#DejaVuSans-31"/>
      <use xlink:href="#DejaVuSans-2e" x="63.623047"/>
      <use xlink:href="#DejaVuSans-30" x="95.410156"/>
     </g>
    </g>
   </g>
  </g>
 </g>
 <defs>
  <clipPath id="p4160b11ee0">
   <rect x="55.01" y="12.96" width="436.03" height="279.510589"/>
  </clipPath>
 </defs>
</svg>
